# xmcd
#
# Track frame offsets: 
#        150
#        12846
#        35498
#        50381
#        64362
#        90716
#        102445
#        128666
#        145225
#        169683
#        202596
#
# Disc length: 3128 seconds
#
# Revision: 0
# Processed by: cddbd v1.5.2PL0 Copyright (c) Steve Scherf et al.
# Submitted via: ExactAudioCopy v0.99pb4
#
DISCID=8e0c360b
DTITLE=Gary Moore - Close As You Get
DYEAR=2007
DGENRE=Blues
TTITLE0=If The Devil Made Whisky
TTITLE1=Trouble At Home
TTITLE2=Thirty Days
TTITLE3=Hard Times
TTITLE4=Have You Heard
TTITLE5=Eyesight To The Blind
TTITLE6=Evenin'
TTITLE7=Nowhere Fast
TTITLE8=Checkin' Up My Baby
TTITLE9=I Had A Dream
TTITLE10=Sundown
EXTD=
EXTT0=
EXTT1=
EXTT2=
EXTT3=
EXTT4=
EXTT5=
EXTT6=
EXTT7=
EXTT8=
EXTT9=
EXTT10=
PLAYORDER=
